<svg xmlns="http://www.w3.org/2000/svg" viewBox="0 0 457.68 457.68"><path fill="#ffffff" d="M439.48 167.086V55.837c0-17.81-14.49-32.3-32.3-32.3H32.3c-17.811 0-32.3 14.49-32.3 32.3v226.63c0 17.81 14.49 32.3 32.3 32.3h106.243l-12.162 13.09H108.16a7.5 7.5 0 0 0 0 15h104.361v72.334c0 10.449 8.501 18.951 18.951 18.951h80.627c10.449 0 18.951-8.501 18.951-18.951v-15.234h100.94c14.166 0 25.69-11.529 25.69-25.7v-182.59c0-11.563-7.674-21.364-18.2-24.581zm3.2 24.581v2.049H270.19v-2.049c0-5.9 4.8-10.7 10.7-10.7h151.1c5.895.001 10.69 4.801 10.69 10.7zm-130.581 63.364H270.19v-46.315h172.49v148.491H331.05v-83.226c0-10.449-8.502-18.95-18.951-18.95zm3.951 28.809h-88.528v-9.858a3.956 3.956 0 0 1 3.951-3.951H312.1a3.956 3.956 0 0 1 3.951 3.951v9.858zM424.479 63.337v102.63h-143.59c-14.171 0-25.7 11.529-25.7 25.7v63.364h-23.718c-10.441 0-18.936 8.488-18.949 18.926H14.999V63.337h409.48zM227.52 298.84h88.528v91.495H227.52V298.84zM32.299 38.537h374.88c6.85 0 12.765 4.012 15.565 9.8H16.733c2.801-5.788 8.716-9.8 15.566-9.8zM16.274 288.958h196.247v10.81H32.299c-7.243-.001-13.452-4.48-16.025-10.81zm130.582 38.899l12.162-13.09h53.503v13.09h-65.665zm165.242 91.286h-80.627a3.956 3.956 0 0 1-3.951-3.951v-9.857h88.528v9.857a3.955 3.955 0 0 1-3.95 3.951zm119.891-34.185h-100.94v-12.75h111.63v2.05c0 5.899-4.795 10.7-10.69 10.7z"/></svg>